<?xml version="1.0" encoding="utf-8"?>
<!-- Uploaded to: SVG Repo, www.svgrepo.com, Generator: SVG Repo Mixer Tools -->
<svg fill="#50fa7b" width="800px" height="800px" viewBox="0 0 32 32" version="1.1" xmlns="http://www.w3.org/2000/svg">
<title>python</title>
<path d="M19.212 26.447l-0.287 0.412-0.1 0.512 0.1 0.512 0.287 0.412 0.412 0.287 0.512 0.1 0.512-0.1 0.412-0.287 0.287-0.412 0.1-0.512-0.1-0.512-0.287-0.412-0.412-0.287-0.512-0.1-0.512 0.1zM27.297 8.64l0.35 0.075 0.4 0.15 0.437 0.225 0.45 0.337 0.45 0.437 0.437 0.587 0.4 0.737 0.35 0.912 0.262 1.1 0.175 1.3 0.062 1.537-0.075 1.537-0.2 1.3-0.3 1.075-0.4 0.887-0.45 0.712-0.5 0.562-0.525 0.412-0.525 0.3-0.5 0.2-0.45 0.112-0.4 0.062-0.3 0.025-0.2-0.012h-10.272v1.025h7.298l0.012 3.449 0.025 0.45-0.062 0.425-0.137 0.387-0.212 0.362-0.312 0.312-0.387 0.3-0.475 0.25-0.55 0.212-0.637 0.187-0.725 0.162-0.8 0.112-0.887 0.087-0.962 0.050-1.050 0.012-1.587-0.050-1.337-0.175-1.125-0.25-0.912-0.312-0.737-0.375-0.562-0.412-0.425-0.425-0.312-0.425-0.2-0.412-0.125-0.375-0.050-0.312-0.025-0.25 0.012-0.162v-6.673l0.063-0.8 0.162-0.675 0.262-0.575 0.325-0.475 0.375-0.4 0.412-0.3 0.437-0.25 0.437-0.175 0.412-0.125 0.375-0.075 0.325-0.050 0.262-0.025 0.162-0.012h7.298l0.862-0.062 0.737-0.175 0.625-0.262 0.512-0.35 0.412-0.4 0.337-0.437 0.25-0.45 0.187-0.45 0.125-0.437 0.087-0.4 0.050-0.35 0.025-0.262v-3.824h2.612l0.175 0.012zM10.939 3.704l-0.287 0.412-0.1 0.512 0.1 0.512 0.287 0.425 0.412 0.275 0.512 0.112 0.512-0.113 0.412-0.275 0.287-0.425 0.1-0.512-0.1-0.512-0.287-0.412-0.412-0.275-0.512-0.112-0.512 0.112zM18.812 1.229l1.125 0.25 0.912 0.325 0.737 0.375 0.562 0.4 0.425 0.425 0.312 0.425 0.2 0.412 0.125 0.375 0.050 0.325 0.025 0.25-0.012 0.162v6.673l-0.062 0.787-0.162 0.687-0.262 0.575-0.325 0.475-0.375 0.387-0.412 0.312-0.437 0.237-0.437 0.175-0.412 0.125-0.375 0.087-0.325 0.050-0.263 0.025h-7.46l-0.862 0.062-0.737 0.175-0.625 0.275-0.512 0.337-0.412 0.4-0.337 0.437-0.25 0.45-0.187 0.462-0.125 0.437-0.087 0.4-0.050 0.337-0.025 0.262v3.824h-2.787l-0.262-0.037-0.35-0.087-0.4-0.15-0.437-0.225-0.45-0.325-0.45-0.45-0.437-0.575-0.4-0.737-0.35-0.912-0.262-1.1-0.175-1.312-0.062-1.537 0.075-1.524 0.2-1.3 0.3-1.087 0.4-0.887 0.45-0.712 0.5-0.55 0.525-0.412 0.525-0.3 0.5-0.2 0.45-0.125 0.4-0.062 0.3-0.012h0.2l0.075 0.012h10.197v-1.037h-7.298l-0.012-3.436-0.025-0.462 0.062-0.425 0.137-0.387 0.212-0.35 0.312-0.325 0.387-0.287 0.475-0.25 0.55-0.225 0.637-0.187 0.725-0.15 0.8-0.125 0.887-0.075 0.962-0.050 1.050-0.025 1.587 0.063z"></path>
</svg>